<?xml version="1.0" encoding="utf-8" ?>
<svg xmlns="http://www.w3.org/2000/svg" xmlns:xlink="http://www.w3.org/1999/xlink" width="1024" height="1024">
	<path fill="#E0E5E5" d="M506.785 44.724Q510.939 44.6009 515.095 44.6165C615.08 44.4423 717.038 81.7417 796.094 142.329C813.531 155.692 829.984 170.905 845.524 186.408C930.206 270.88 978.861 393.44 979.002 512.657Q978.997 518.356 978.851 524.052Q978.705 529.749 978.419 535.441Q978.132 541.132 977.706 546.815Q977.279 552.497 976.713 558.168Q976.147 563.838 975.441 569.493Q974.734 575.148 973.889 580.783Q973.044 586.419 972.06 592.032Q971.076 597.645 969.954 603.232Q968.832 608.819 967.573 614.377Q966.313 619.935 964.917 625.46Q963.521 630.985 961.99 636.474Q960.458 641.962 958.791 647.412Q957.125 652.861 955.324 658.268Q953.524 663.675 951.59 669.036Q949.657 674.396 947.593 679.708Q945.528 685.019 943.333 690.278Q941.138 695.537 938.813 700.74Q936.489 705.943 934.038 711.088Q931.586 716.232 929.008 721.314Q926.431 726.397 923.729 731.414Q921.026 736.431 918.201 741.38Q915.376 746.329 912.43 751.207Q909.484 756.085 906.418 760.889Q903.353 765.693 900.17 770.419Q896.987 775.146 893.688 779.793Q890.389 784.44 886.977 789.004Q883.565 793.568 880.041 798.047Q876.518 802.526 872.885 806.916Q869.252 811.307 865.512 815.606Q861.771 819.906 857.927 824.112Q854.082 828.318 850.134 832.428Q846.187 836.538 842.139 840.549Q838.738 843.921 835.269 847.224Q831.8 850.526 828.265 853.758Q824.729 856.989 821.129 860.148Q817.529 863.306 813.865 866.391Q810.201 869.476 806.475 872.486Q802.749 875.495 798.963 878.428Q795.177 881.362 791.331 884.217Q787.486 887.073 783.584 889.85Q779.681 892.627 775.723 895.324Q771.765 898.021 767.753 900.636Q763.741 903.252 759.677 905.786Q755.612 908.32 751.497 910.77Q747.382 913.221 743.217 915.587Q739.053 917.953 734.842 920.235Q730.63 922.516 726.373 924.711Q722.116 926.906 717.816 929.014Q713.515 931.122 709.172 933.142Q704.829 935.162 700.447 937.093Q696.064 939.025 691.642 940.867Q687.221 942.708 682.763 944.46Q678.306 946.211 673.813 947.872Q669.32 949.532 664.795 951.101Q660.27 952.67 655.713 954.146Q651.157 955.623 646.572 957.006Q641.986 958.389 637.374 959.679Q632.761 960.969 628.123 962.165Q623.485 963.361 618.824 964.462Q614.163 965.563 609.48 966.569Q604.797 967.576 600.095 968.486Q595.393 969.397 590.673 970.212Q585.954 971.027 581.218 971.746Q576.483 972.465 571.734 973.087C554.356 975.417 536.399 977.523 518.852 977.506C394.465 978.132 282.322 933.397 190.659 849.557C102.702 769.108 51.7254 651.561 46.64 532.942Q46.3996 527.153 46.3023 521.36Q46.2049 515.567 46.2506 509.773Q46.2962 503.98 46.4849 498.189Q46.6737 492.398 47.0053 486.614Q47.3369 480.829 47.8112 475.055Q48.2856 469.28 48.9023 463.519Q49.5191 457.758 50.2779 452.014Q51.0367 446.27 51.937 440.547Q52.8374 434.823 53.8788 429.124Q54.9202 423.424 56.102 417.752Q57.2839 412.08 58.6053 406.439Q59.9268 400.798 61.3872 395.191Q62.8476 389.584 64.4459 384.015Q66.0443 378.446 67.7796 372.918Q69.515 367.39 71.3863 361.907Q73.2576 356.423 75.2637 350.988Q77.2698 345.552 79.4095 340.168Q81.5492 334.784 83.8212 329.454Q86.0932 324.124 88.496 318.852Q90.8989 313.58 93.4312 308.369Q95.9635 303.158 98.6237 298.01Q101.284 292.863 104.07 287.784Q106.857 282.704 109.768 277.694Q112.679 272.685 115.713 267.749Q118.747 262.812 121.901 257.953Q125.056 253.093 128.33 248.313Q131.604 243.532 134.994 238.834Q138.385 234.136 141.891 229.523Q145.397 224.911 149.015 220.386Q152.634 215.861 156.363 211.426Q160.092 206.992 163.93 202.652Q167.767 198.311 171.711 194.066Q174.659 190.903 177.664 187.794Q180.67 184.686 183.732 181.633Q186.794 178.58 189.912 175.585Q193.03 172.589 196.203 169.651Q199.375 166.713 202.601 163.835Q205.828 160.956 209.106 158.137Q212.385 155.318 215.715 152.56Q219.045 149.802 222.425 147.106Q225.805 144.409 229.235 141.776Q232.664 139.142 236.141 136.572Q239.618 134.003 243.142 131.497Q246.666 128.992 250.236 126.552Q253.806 124.112 257.419 121.738Q261.033 119.364 264.69 117.057Q268.347 114.75 272.046 112.511Q275.745 110.271 279.485 108.101Q283.224 105.93 287.003 103.828Q290.782 101.727 294.599 99.6955Q298.416 97.664 302.269 95.7031Q306.123 93.7423 310.012 91.8528Q313.901 89.9632 317.824 88.1457Q321.748 86.3281 325.704 84.5831Q329.66 82.8381 333.648 81.1662Q337.635 79.4944 341.653 77.8963Q345.67 76.2982 349.717 74.7744Q353.763 73.2505 357.837 71.8015Q361.911 70.3524 366.011 68.9787Q370.111 67.6049 374.235 66.3069Q378.359 65.0089 382.507 63.7871Q386.655 62.5653 390.824 61.42Q394.994 60.2748 399.183 59.2066Q403.373 58.1384 407.582 57.1475C440.497 49.6062 473.122 46.1508 506.785 44.724Z"/>
	<path fill="#ABC9C5" d="M789.134 264.133C800.699 269.032 833.316 326.769 840.526 340.734C844.091 347.641 847.14 354.685 850.058 361.885C889.899 460.207 890.752 559.661 849.245 657.708Q847.48 661.854 845.613 665.955Q843.746 670.056 841.779 674.109Q839.811 678.163 837.744 682.167Q835.677 686.171 833.511 690.122Q831.346 694.074 829.084 697.971Q826.822 701.868 824.464 705.708Q822.107 709.548 819.655 713.328Q817.203 717.109 814.659 720.827Q812.114 724.546 809.479 728.201Q806.843 731.856 804.119 735.445Q801.394 739.033 798.581 742.554Q795.769 746.074 792.87 749.524Q789.971 752.974 786.988 756.351Q784.005 759.728 780.94 763.031Q777.875 766.333 774.729 769.559Q771.583 772.785 768.358 775.932Q765.133 779.079 761.832 782.146Q758.53 785.213 755.154 788.197Q751.778 791.181 748.329 794.081Q744.881 796.981 741.361 799.795Q737.842 802.609 734.255 805.335Q730.667 808.061 727.013 810.698Q723.359 813.335 719.641 815.88Q715.923 818.426 712.144 820.879Q708.364 823.333 704.525 825.692Q700.686 828.051 696.79 830.315Q692.894 832.578 688.943 834.745Q684.992 836.912 680.989 838.98Q676.986 841.049 672.933 843.018Q668.88 844.987 664.78 846.856Q660.68 848.724 656.535 850.491Q652.39 852.257 648.202 853.921C627.938 862.114 598.685 872.699 576.781 873.828C582.865 865.393 588.396 856.421 594.155 847.756L630.478 793.253Q674.097 729.65 713.826 663.547C747.124 609.15 779.301 553.573 802.677 494.067C809.465 476.785 815.878 459.066 819.371 440.78C827.101 400.313 820.925 352.622 808.555 313.607C803.182 296.66 796.24 280.407 789.134 264.133Z"/>
	<path fill="#ABC9C5" d="M237.848 258.014C215.46 304.193 203.612 346.913 202.219 398.45C201.895 410.442 201.562 422.715 203.255 434.624C205.224 448.467 209.477 461.823 214.045 474.993C227.463 513.676 246.349 550.439 265.744 586.416Q301.9 653.41 342.817 717.607Q366.429 753.855 390.65 789.7L423.428 839.272C431.239 851.319 438.563 863.753 447.183 875.251C430.929 875.318 410.211 867.033 395.037 861.472C372.11 853.069 350.045 843.256 328.906 830.989Q325.809 829.178 322.747 827.308Q319.685 825.438 316.659 823.511Q313.633 821.583 310.644 819.598Q307.656 817.613 304.705 815.571Q301.755 813.53 298.844 811.432Q295.933 809.335 293.063 807.182Q290.192 805.03 287.363 802.823Q284.534 800.617 281.748 798.356Q278.961 796.096 276.219 793.783Q273.476 791.471 270.777 789.106Q268.079 786.741 265.426 784.326Q262.774 781.91 260.167 779.444Q257.561 776.979 255.002 774.464Q252.443 771.949 249.933 769.386Q247.422 766.823 244.961 764.212Q242.5 761.602 240.088 758.945Q237.677 756.288 235.317 753.586Q232.957 750.883 230.649 748.137Q228.341 745.39 226.085 742.6Q223.83 739.809 221.628 736.977Q219.426 734.144 217.278 731.27Q215.131 728.396 213.038 725.481Q210.946 722.567 208.909 719.613Q206.873 716.659 204.893 713.667Q202.913 710.675 200.99 707.646Q199.067 704.617 197.203 701.552Q195.338 698.487 193.532 695.386Q191.726 692.286 189.98 689.152Q188.233 686.018 186.547 682.851Q184.86 679.685 183.234 676.486Q181.608 673.288 180.044 670.06Q178.479 666.831 176.976 663.573Q175.085 659.399 173.296 655.181Q171.508 650.963 169.823 646.702Q168.138 642.441 166.557 638.14Q164.977 633.839 163.502 629.501Q162.027 625.163 160.658 620.79Q159.289 616.418 158.028 612.013Q156.766 607.608 155.613 603.174Q154.459 598.739 153.414 594.278Q152.369 589.817 151.433 585.332Q150.497 580.846 149.671 576.339Q148.845 571.832 148.13 567.307Q147.414 562.781 146.809 558.239Q146.204 553.697 145.71 549.142Q145.216 544.587 144.833 540.021Q144.45 535.455 144.179 530.881Q143.908 526.307 143.749 521.728Q143.589 517.149 143.542 512.567Q143.494 507.985 143.559 503.404Q143.623 498.822 143.799 494.244Q143.975 489.665 144.263 485.092Q144.551 480.519 144.95 475.955Q145.35 471.39 145.861 466.837Q146.371 462.283 146.993 457.744Q147.615 453.204 148.347 448.681Q149.08 444.158 149.922 439.654Q150.765 435.151 151.717 430.669Q152.669 426.187 153.731 421.729Q154.792 417.272 155.962 412.842Q157.132 408.412 158.41 404.012Q159.687 399.612 161.072 395.244Q162.457 390.876 163.948 386.543Q165.439 382.211 167.035 377.916Q169.598 370.81 172.432 363.807Q175.266 356.805 178.367 349.917Q181.468 343.028 184.832 336.264Q188.195 329.5 191.816 322.87Q195.437 316.24 199.31 309.754Q203.182 303.268 207.302 296.936Q211.421 290.603 215.78 284.434Q220.14 278.264 224.733 272.267C228.183 267.825 232.712 260.386 237.848 258.014Z"/>
	<path fill="#0A3A49" d="M237.848 258.014C247.753 241.964 257.146 226.083 268.826 211.226Q270.812 208.717 272.85 206.25Q274.887 203.782 276.976 201.358Q279.065 198.934 281.203 196.553Q283.342 194.173 285.53 191.837Q287.717 189.502 289.953 187.213Q292.189 184.923 294.472 182.681Q296.755 180.439 299.084 178.245Q301.413 176.05 303.788 173.905Q306.162 171.76 308.58 169.664Q310.999 167.569 313.46 165.524Q315.922 163.479 318.425 161.486Q320.929 159.493 323.473 157.553Q326.018 155.612 328.602 153.725Q331.186 151.838 333.809 150.005Q336.432 148.172 339.093 146.394Q341.754 144.616 344.451 142.894Q347.148 141.171 349.88 139.506Q352.612 137.84 355.378 136.231Q358.145 134.623 360.944 133.072Q363.743 131.522 366.574 130.029Q369.405 128.537 372.266 127.105Q375.127 125.672 378.018 124.299Q380.908 122.926 383.827 121.613Q386.745 120.301 389.69 119.049Q392.635 117.798 395.606 116.608Q398.577 115.418 401.571 114.29Q404.566 113.162 407.583 112.097Q410.601 111.032 413.64 110.029Q416.679 109.027 419.738 108.088Q422.797 107.15 425.875 106.275Q428.953 105.4 432.049 104.589Q435.144 103.778 438.256 103.032Q442.01 102.117 445.786 101.296Q449.562 100.476 453.357 99.7489Q457.152 99.0223 460.964 98.3904Q464.775 97.7585 468.602 97.2217Q472.428 96.6848 476.267 96.2435Q480.106 95.8021 483.954 95.4564Q487.803 95.1107 491.658 94.861Q495.514 94.6112 499.375 94.4575Q503.236 94.3038 507.1 94.2463Q510.963 94.1888 514.827 94.2276Q518.691 94.2663 522.552 94.4011Q526.414 94.536 530.271 94.767Q534.128 94.998 537.978 95.325Q541.828 95.6519 545.669 96.0746Q549.51 96.4973 553.339 97.0155Q557.168 97.5337 560.983 98.147Q564.797 98.7604 568.596 99.4686Q572.395 100.177 576.174 100.979Q579.954 101.782 583.712 102.678Q587.471 103.574 591.206 104.564Q594.941 105.554 598.65 106.636Q602.36 107.718 606.041 108.893Q609.722 110.067 613.373 111.333Q617.023 112.598 620.642 113.955Q624.26 115.311 627.843 116.757Q631.426 118.202 634.972 119.737Q638.519 121.271 642.025 122.894Q645.532 124.516 648.998 126.225Q652.463 127.935 655.885 129.73Q659.306 131.524 662.682 133.404Q666.058 135.284 669.387 137.247Q672.715 139.21 675.993 141.255C714.163 164.842 745.402 196.674 770.994 233.347C774.118 237.824 777.006 242.324 779.59 247.142C782.502 252.571 785.084 259.519 789.134 264.133C796.24 280.407 803.182 296.66 808.555 313.607C820.925 352.622 827.101 400.313 819.371 440.78C815.878 459.066 809.465 476.785 802.677 494.067C779.301 553.573 747.124 609.15 713.826 663.547Q674.097 729.65 630.478 793.253L594.155 847.756C588.396 856.421 582.865 865.393 576.781 873.828C564.591 892.303 551.647 910.301 539.205 928.614C530.008 942.15 521.36 956.853 510.62 969.229C500.549 952.637 488.959 936.807 478.052 920.744C467.758 905.584 458.063 890.009 447.183 875.251C438.563 863.753 431.239 851.319 423.428 839.272L390.65 789.7Q366.429 753.855 342.817 717.607Q301.9 653.41 265.744 586.416C246.349 550.439 227.463 513.676 214.045 474.993C209.477 461.823 205.224 448.467 203.255 434.624C201.562 422.715 201.895 410.442 202.219 398.45C203.612 346.913 215.46 304.193 237.848 258.014Z"/>
	<path fill="#F1A240" d="M795.484 325.277C800.028 339.673 802.735 354.592 804.723 369.537C811.763 422.476 801.321 457.646 780.213 505.855Q767.209 535.748 752.193 564.683C704.873 655.605 647.229 740.559 590.091 825.454L549.532 885.91C537.013 904.874 524.825 924.122 510.941 942.133C504.702 932.197 497.754 922.748 491.339 912.932C495.795 908.94 499.995 900.225 503.516 895.113L536.291 847.838Q610.716 740.14 680.081 629.115C714.31 574.306 750.612 518.031 773.122 457.189C784.129 427.439 792.367 395.809 794.436 364.065C794.714 359.797 794.994 355.498 794.893 351.22C794.698 342.935 793.429 334.079 795.319 325.954C795.371 325.728 795.429 325.503 795.484 325.277Z"/>
	<path fill="#FEBB5C" d="M491.339 912.932C483.204 901.428 475.509 889.579 467.624 877.9Q438.507 834.908 410.166 791.4C370.615 731.233 331.701 671.051 296.137 608.4C274.45 570.195 253.58 531.558 237.151 490.744C230.349 473.846 223.367 456.382 219.651 438.491C216.437 423.023 217.06 406.574 218.051 390.878C221.49 336.382 236.977 285.833 267.033 240.1Q269.034 237.12 271.107 234.19Q273.18 231.26 275.323 228.381Q277.467 225.502 279.68 222.676Q281.893 219.851 284.175 217.08Q286.456 214.309 288.804 211.594Q291.152 208.88 293.566 206.223Q295.98 203.566 298.457 200.969Q300.935 198.372 303.475 195.836Q306.015 193.301 308.616 190.827Q311.217 188.354 313.878 185.945Q316.539 183.536 319.257 181.192Q321.976 178.848 324.75 176.572Q327.525 174.295 330.354 172.086Q333.184 169.878 336.066 167.739Q338.949 165.6 341.882 163.532Q344.816 161.464 347.799 159.468Q350.782 157.472 353.813 155.549Q356.844 153.627 359.921 151.778Q362.997 149.93 366.118 148.157Q369.239 146.384 372.402 144.688Q375.566 142.992 378.769 141.373Q381.973 139.754 385.215 138.214Q388.457 136.674 391.735 135.213Q395.014 133.752 398.327 132.372Q401.64 130.991 404.986 129.692Q408.332 128.393 411.708 127.175Q415.085 125.958 418.49 124.823Q421.895 123.688 425.327 122.636Q428.759 121.585 432.215 120.617Q435.672 119.65 439.15 118.766Q442.629 117.883 446.129 117.085Q449.628 116.287 453.146 115.574Q456.707 114.856 460.284 114.226Q463.861 113.596 467.453 113.054Q471.045 112.512 474.649 112.058Q478.253 111.604 481.866 111.238Q485.48 110.873 489.102 110.596Q492.724 110.32 496.352 110.132Q499.979 109.944 503.61 109.846Q507.241 109.747 510.874 109.738Q514.506 109.728 518.137 109.808Q521.769 109.887 525.397 110.056Q529.026 110.225 532.649 110.482Q536.272 110.74 539.888 111.086Q543.504 111.433 547.11 111.868Q550.716 112.303 554.311 112.826Q557.905 113.349 561.486 113.961Q565.066 114.572 568.631 115.271Q572.195 115.97 575.742 116.757Q579.288 117.543 582.814 118.416Q586.34 119.289 589.843 120.248Q593.346 121.208 596.825 122.253Q600.304 123.298 603.756 124.428Q607.208 125.557 610.632 126.772Q614.055 127.986 617.448 129.284Q620.84 130.582 624.2 131.963Q627.56 133.344 630.885 134.806Q634.209 136.269 637.497 137.813Q640.785 139.357 644.034 140.981Q647.283 142.605 650.492 144.309Q653.7 146.012 656.865 147.793Q660.031 149.575 663.152 151.434Q666.273 153.292 669.347 155.227Q672.421 157.161 675.447 159.171Q677.657 160.63 679.84 162.129Q682.023 163.628 684.178 165.166Q686.334 166.705 688.46 168.282Q690.587 169.86 692.685 171.476Q694.783 173.092 696.85 174.747Q698.918 176.401 700.955 178.093Q702.992 179.784 704.998 181.513Q707.004 183.242 708.978 185.007Q710.952 186.772 712.894 188.573Q714.835 190.373 716.744 192.209Q718.652 194.045 720.526 195.916Q722.401 197.786 724.241 199.691Q726.081 201.595 727.885 203.533Q729.69 205.471 731.459 207.441Q733.228 209.412 734.961 211.414Q736.694 213.416 738.39 215.45Q740.086 217.484 741.745 219.548Q743.403 221.612 745.024 223.707Q746.644 225.801 748.226 227.924Q749.808 230.048 751.351 232.2Q752.894 234.352 754.398 236.532Q755.901 238.712 757.365 240.919Q758.828 243.126 760.251 245.359Q761.673 247.593 763.055 249.852Q764.437 252.11 765.777 254.394Q767.118 256.678 768.416 258.986Q769.714 261.294 770.97 263.625Q772.226 265.957 773.439 268.31Q774.652 270.664 775.822 273.04Q776.992 275.415 778.119 277.812Q779.245 280.208 780.328 282.625Q781.41 285.042 782.448 287.478C787.672 299.585 792.84 312.315 795.484 325.277C795.429 325.503 795.371 325.728 795.319 325.954C793.429 334.079 794.698 342.935 794.893 351.22C794.994 355.498 794.714 359.797 794.436 364.065C792.367 395.809 784.129 427.439 773.122 457.189C750.612 518.031 714.31 574.306 680.081 629.115Q610.716 740.14 536.291 847.838L503.516 895.113C499.995 900.225 495.795 908.94 491.339 912.932Z"/>
	<path fill="#0A3A49" d="M500.733 156.705C500.921 156.679 501.109 156.649 501.297 156.628C511.694 155.505 523.056 156.445 533.447 157.46Q537.934 157.863 542.403 158.432Q546.873 159 551.318 159.734Q555.763 160.467 560.178 161.364Q564.593 162.262 568.971 163.321Q573.35 164.381 577.687 165.602Q582.023 166.823 586.312 168.204Q590.6 169.584 594.835 171.122Q599.069 172.661 603.244 174.354Q607.419 176.048 611.528 177.895Q615.637 179.742 619.676 181.739Q623.714 183.736 627.675 185.882Q631.637 188.027 635.517 190.318Q639.396 192.608 643.188 195.04Q646.981 197.473 650.68 200.043Q654.38 202.614 657.982 205.32Q661.584 208.026 665.084 210.863Q667.461 212.814 669.789 214.822Q672.116 216.831 674.394 218.897Q676.671 220.962 678.897 223.084Q681.123 225.205 683.295 227.381Q685.468 229.556 687.586 231.785Q689.704 234.014 691.767 236.294Q693.829 238.574 695.835 240.905Q697.84 243.235 699.787 245.615Q701.735 247.994 703.623 250.421Q705.511 252.848 707.338 255.321Q709.165 257.794 710.931 260.311Q712.697 262.828 714.4 265.388Q716.103 267.948 717.742 270.549Q719.381 273.15 720.955 275.792Q722.53 278.433 724.038 281.112Q725.547 283.791 726.989 286.506Q728.431 289.222 729.805 291.972Q731.18 294.723 732.486 297.506Q733.792 300.29 735.029 303.105Q736.266 305.92 737.433 308.764Q738.599 311.609 739.696 314.481Q740.792 317.354 741.817 320.253Q742.842 323.152 743.795 326.075Q744.748 328.998 745.628 331.944Q746.509 334.89 747.316 337.857Q748.124 340.824 748.858 343.809Q749.592 346.795 750.252 349.798Q750.911 352.801 751.497 355.82Q752.082 358.838 752.593 361.87Q753.104 364.902 753.539 367.946Q753.975 370.99 754.335 374.043Q754.695 377.096 754.98 380.158Q755.253 383.093 755.454 386.034Q755.655 388.975 755.783 391.92Q755.911 394.866 755.966 397.813Q756.022 400.76 756.004 403.708Q755.986 406.656 755.896 409.602Q755.806 412.549 755.643 415.492Q755.48 418.436 755.244 421.374Q755.008 424.313 754.7 427.244Q754.392 430.176 754.011 433.099Q753.63 436.022 753.178 438.935Q752.725 441.848 752.201 444.749Q751.676 447.65 751.08 450.537Q750.484 453.424 749.817 456.296Q749.15 459.167 748.412 462.021Q747.675 464.875 746.867 467.71Q746.058 470.545 745.181 473.359Q744.303 476.173 743.356 478.965Q742.409 481.757 741.393 484.524Q740.377 487.291 739.293 490.033Q738.21 492.774 737.058 495.488Q735.907 498.202 734.689 500.886Q733.471 503.571 732.188 506.224Q730.904 508.878 729.555 511.499Q728.206 514.12 726.793 516.707Q725.38 519.295 723.903 521.846Q722.426 524.397 720.887 526.911Q719.347 529.425 717.746 531.901Q716.146 534.376 714.484 536.811Q712.822 539.246 711.101 541.639Q709.38 544.032 707.6 546.382Q705.82 548.732 703.983 551.037Q702.146 553.343 700.252 555.602Q698.561 557.623 696.828 559.607Q695.094 561.592 693.319 563.54Q691.544 565.487 689.729 567.397Q687.913 569.307 686.058 571.178Q684.202 573.049 682.307 574.88Q680.413 576.711 678.48 578.502Q676.547 580.293 674.577 582.043Q672.607 583.793 670.6 585.501Q668.593 587.208 666.551 588.873Q664.508 590.538 662.431 592.16Q660.354 593.781 658.244 595.359Q656.133 596.936 653.989 598.468Q651.845 600.001 649.67 601.487Q647.494 602.974 645.288 604.415Q643.082 605.855 640.845 607.249Q638.609 608.643 636.344 609.989Q634.078 611.335 631.785 612.633Q629.492 613.931 627.172 615.18Q624.852 616.429 622.506 617.629Q620.16 618.829 617.789 619.979Q615.418 621.129 613.024 622.229Q610.629 623.329 608.212 624.378Q605.795 625.427 603.356 626.425Q600.917 627.423 598.458 628.369Q595.998 629.315 593.52 630.209Q591.041 631.103 588.544 631.944Q586.047 632.785 583.532 633.574Q581.018 634.362 578.488 635.098Q575.957 635.833 573.412 636.515Q570.866 637.196 568.307 637.824Q565.748 638.452 563.176 639.025Q560.604 639.599 558.021 640.118C546.892 642.369 535.643 643.357 524.355 644.419C460.579 645.757 402.877 626.85 353.832 585.623Q351.567 583.728 349.35 581.777Q347.133 579.827 344.964 577.822Q342.796 575.818 340.678 573.761Q338.559 571.704 336.492 569.595Q334.425 567.486 332.41 565.327Q330.396 563.168 328.435 560.96Q326.474 558.752 324.568 556.496Q322.662 554.24 320.813 551.938Q318.963 549.636 317.17 547.29Q315.378 544.943 313.644 542.553Q311.91 540.162 310.235 537.73Q308.56 535.298 306.946 532.825Q305.332 530.353 303.779 527.841Q302.226 525.329 300.736 522.78Q299.245 520.231 297.818 517.645Q296.39 515.06 295.027 512.441Q293.664 509.821 292.366 507.169Q291.068 504.517 289.835 501.833Q288.602 499.15 287.436 496.437Q286.27 493.724 285.171 490.983Q284.073 488.242 283.041 485.475Q282.01 482.707 281.048 479.916Q280.085 477.124 279.192 474.309Q278.298 471.495 277.474 468.659Q276.65 465.823 275.896 462.968Q275.143 460.113 274.459 457.24Q273.776 454.367 273.164 451.478Q272.551 448.59 272.01 445.687Q271.469 442.784 271 439.868Q270.531 436.953 270.133 434.026Q269.736 431.1 269.411 428.165Q269.086 425.23 268.833 422.288Q268.576 419.287 268.393 416.28Q268.21 413.273 268.101 410.263Q267.993 407.252 267.958 404.24Q267.924 401.228 267.964 398.216Q268.003 395.204 268.117 392.194Q268.231 389.183 268.419 386.177Q268.607 383.17 268.87 380.17Q269.132 377.169 269.468 374.175Q269.804 371.181 270.214 368.197Q270.623 365.213 271.107 362.239Q271.59 359.266 272.146 356.306Q272.703 353.345 273.332 350.399Q273.961 347.453 274.662 344.524Q275.364 341.594 276.137 338.683Q276.911 335.771 277.756 332.88Q278.601 329.989 279.517 327.119Q280.433 324.249 281.42 321.403Q282.406 318.557 283.463 315.736Q284.519 312.915 285.645 310.12Q286.77 307.326 287.964 304.561Q289.159 301.795 290.421 299.06Q291.682 296.325 293.011 293.621Q294.34 290.918 295.736 288.248Q297.131 285.578 298.591 282.944Q300.052 280.309 301.577 277.711Q303.102 275.114 304.691 272.554Q306.279 269.995 307.931 267.475Q309.582 264.956 311.295 262.478Q313.008 260 314.781 257.565Q316.554 255.13 318.387 252.739Q320.22 250.349 322.111 248.004Q324.003 245.659 325.951 243.362C371.729 189.109 430.729 162.65 500.733 156.705Z"/>
	<path fill="#E0E5E5" d="M502.387 172.211C502.599 172.188 502.811 172.16 503.023 172.142C513.287 171.278 523.8 171.876 534.038 172.843Q536.244 173.056 538.445 173.312Q540.646 173.568 542.842 173.867Q545.038 174.165 547.227 174.507Q549.416 174.849 551.599 175.234Q553.781 175.619 555.956 176.046Q558.13 176.474 560.295 176.943Q562.461 177.413 564.617 177.926Q566.773 178.438 568.918 178.992Q571.064 179.547 573.198 180.143Q575.333 180.739 577.455 181.377Q579.577 182.015 581.686 182.694Q583.795 183.374 585.891 184.094Q587.986 184.815 590.068 185.577Q592.149 186.338 594.214 187.14Q596.28 187.942 598.33 188.785Q600.379 189.627 602.412 190.51Q604.445 191.392 606.46 192.314Q608.475 193.236 610.471 194.197Q612.468 195.159 614.445 196.159Q616.423 197.159 618.38 198.198Q620.338 199.237 622.274 200.314Q624.211 201.391 626.126 202.505Q628.042 203.62 629.935 204.772Q631.828 205.924 633.698 207.113Q635.568 208.302 637.414 209.527Q639.261 210.752 641.083 212.013Q642.905 213.274 644.702 214.571Q646.499 215.867 648.27 217.199Q650.042 218.531 651.787 219.897Q653.531 221.263 655.249 222.662Q656.967 224.062 658.657 225.496Q660.347 226.929 662.009 228.395Q664.118 230.242 666.18 232.141Q668.243 234.039 670.259 235.988Q672.274 237.936 674.241 239.933Q676.208 241.931 678.126 243.976Q680.043 246.021 681.91 248.113Q683.776 250.204 685.591 252.341Q687.406 254.478 689.167 256.659Q690.929 258.84 692.636 261.063Q694.344 263.286 695.996 265.551Q697.649 267.816 699.245 270.12Q700.841 272.425 702.38 274.768Q703.919 277.111 705.401 279.491Q706.882 281.871 708.304 284.287Q709.726 286.703 711.089 289.153Q712.451 291.603 713.753 294.086Q715.055 296.568 716.296 299.082Q717.536 301.596 718.715 304.14Q719.893 306.684 721.009 309.255Q722.124 311.827 723.176 314.426Q724.228 317.024 725.216 319.648Q726.204 322.271 727.127 324.918Q728.051 327.565 728.909 330.234Q729.766 332.903 730.558 335.592Q731.351 338.281 732.076 340.989Q732.802 343.697 733.461 346.422Q734.12 349.147 734.712 351.887Q735.304 354.627 735.829 357.381Q736.353 360.135 736.81 362.901Q737.266 365.667 737.655 368.443Q738.044 371.219 738.364 374.004Q738.684 376.789 738.936 379.582Q739.188 382.374 739.371 385.171Q739.581 387.984 739.72 390.802Q739.86 393.62 739.929 396.44Q739.997 399.26 739.995 402.081Q739.994 404.902 739.921 407.723Q739.849 410.543 739.706 413.36Q739.563 416.178 739.349 418.991Q739.135 421.804 738.851 424.611Q738.568 427.417 738.213 430.216Q737.859 433.015 737.435 435.804Q737.011 438.593 736.517 441.371Q736.023 444.148 735.46 446.913Q734.897 449.677 734.265 452.426Q733.632 455.176 732.931 457.908Q732.23 460.641 731.461 463.355Q730.692 466.069 729.855 468.764Q729.018 471.458 728.114 474.13Q727.21 476.802 726.24 479.451Q725.269 482.1 724.232 484.724Q723.195 487.348 722.093 489.945Q720.991 492.542 719.825 495.11Q718.658 497.679 717.427 500.217Q716.196 502.756 714.902 505.263Q713.608 507.769 712.252 510.243Q710.896 512.717 709.478 515.156Q708.06 517.595 706.582 519.997Q705.103 522.4 703.565 524.765Q702.027 527.13 700.43 529.456Q698.833 531.781 697.179 534.066Q695.524 536.351 693.813 538.594Q692.102 540.837 690.335 543.036Q688.568 545.235 686.746 547.39Q684.925 549.544 683.05 551.652C641.272 599.309 584.609 624.796 521.834 628.91Q519.108 628.997 516.381 629.02Q513.654 629.043 510.927 629.002Q508.2 628.961 505.475 628.856Q502.749 628.751 500.027 628.582Q497.305 628.414 494.588 628.181Q491.871 627.949 489.159 627.652Q486.448 627.356 483.745 626.997Q481.041 626.637 478.347 626.214Q475.653 625.791 472.969 625.305Q470.286 624.819 467.614 624.27Q464.943 623.721 462.285 623.11Q459.627 622.499 456.984 621.825Q454.341 621.152 451.715 620.417Q449.089 619.681 446.48 618.885Q443.872 618.088 441.283 617.231Q438.694 616.373 436.126 615.455Q433.558 614.537 431.012 613.559Q428.466 612.581 425.944 611.544Q423.421 610.506 420.924 609.41Q418.427 608.314 415.956 607.159Q413.485 606.005 411.042 604.793Q408.599 603.581 406.185 602.312Q403.771 601.043 401.387 599.717Q399.004 598.392 396.652 597.011Q394.3 595.63 391.981 594.195Q389.662 592.759 387.378 591.269Q385.093 589.78 382.844 588.237Q380.595 586.694 378.383 585.099Q376.171 583.504 373.997 581.858Q371.822 580.211 369.687 578.514Q367.552 576.817 365.458 575.071Q363.363 573.324 361.31 571.529Q359.197 569.731 357.13 567.881Q355.063 566.031 353.042 564.131Q351.022 562.23 349.049 560.279Q347.077 558.328 345.154 556.329Q343.231 554.329 341.358 552.283Q339.486 550.236 337.665 548.143Q335.844 546.05 334.076 543.913Q332.308 541.775 330.594 539.594Q328.879 537.413 327.22 535.19Q325.561 532.967 323.958 530.703Q322.354 528.439 320.808 526.136Q319.262 523.832 317.773 521.491Q316.285 519.15 314.856 516.773Q313.426 514.395 312.057 511.983Q310.687 509.57 309.378 507.124Q308.069 504.679 306.822 502.201Q305.574 499.723 304.389 497.215Q303.203 494.707 302.081 492.17Q300.959 489.633 299.9 487.069Q298.841 484.505 297.847 481.915Q296.852 479.325 295.923 476.712Q294.994 474.098 294.13 471.462Q293.266 468.825 292.468 466.169Q291.67 463.512 290.939 460.836Q290.207 458.16 289.543 455.466Q288.879 452.773 288.282 450.064Q287.685 447.355 287.156 444.631Q286.627 441.908 286.166 439.173Q285.705 436.437 285.312 433.691Q284.92 430.945 284.596 428.19Q284.272 425.435 284.017 422.672Q283.762 419.91 283.576 417.142Q283.395 414.303 283.283 411.46Q283.172 408.617 283.129 405.773Q283.087 402.928 283.115 400.083Q283.143 397.239 283.24 394.395Q283.337 391.552 283.504 388.712Q283.67 385.872 283.906 383.037Q284.142 380.202 284.448 377.373Q284.753 374.545 285.128 371.725Q285.502 368.905 285.946 366.095Q286.389 363.284 286.901 360.486Q287.413 357.688 287.993 354.902Q288.574 352.117 289.222 349.347Q289.87 346.577 290.586 343.824Q291.302 341.07 292.085 338.335Q292.868 335.6 293.718 332.885Q294.568 330.17 295.483 327.477Q296.399 324.783 297.381 322.113Q298.362 319.443 299.409 316.797Q300.455 314.152 301.566 311.533Q302.677 308.914 303.852 306.323Q305.027 303.732 306.264 301.17Q307.502 298.609 308.802 296.078Q310.102 293.548 311.464 291.05Q312.825 288.552 314.247 286.088Q315.67 283.624 317.152 281.196Q318.634 278.767 320.175 276.376Q321.716 273.985 323.315 271.632Q324.914 269.279 326.57 266.966Q328.227 264.653 329.939 262.381Q331.651 260.109 333.419 257.879Q335.186 255.65 337.007 253.465Q338.829 251.279 340.703 249.139C382.318 201.383 439.819 176.514 502.387 172.211Z"/>
	<path fill="#0A3A49" d="M640.212 341.601C647.713 341.169 654.351 341.997 660.844 346.07C671.233 352.588 677.671 364.279 680.328 375.987Q680.696 377.672 680.982 379.373Q681.268 381.075 681.472 382.788Q681.675 384.501 681.794 386.221Q681.914 387.942 681.95 389.667Q681.986 391.392 681.938 393.116Q681.89 394.84 681.758 396.56Q681.626 398.28 681.411 399.992Q681.196 401.704 680.898 403.403Q680.6 405.102 680.22 406.784Q679.839 408.467 679.378 410.129Q678.917 411.791 678.375 413.429Q677.833 415.067 677.212 416.676Q676.592 418.286 675.894 419.863Q675.196 421.441 674.422 422.983Q673.648 424.524 672.8 426.026Q671.952 427.529 671.032 428.988C662.699 441.937 651.761 449.073 636.859 452.39C629.215 452.846 621.715 451.403 615.168 447.3C604.926 440.883 598.97 429.042 596.45 417.549C592.523 399.637 596.882 379.671 606.869 364.413C614.873 352.183 625.903 344.536 640.212 341.601Z"/>
	<path fill="#438E8A" d="M640.255 356.622C645.101 356.344 649.632 356.685 653.932 359.146C660.003 362.622 663.427 369.307 665.227 375.836Q665.593 377.187 665.893 378.554Q666.192 379.921 666.426 381.301Q666.659 382.681 666.825 384.07Q666.991 385.46 667.089 386.856Q667.188 388.252 667.219 389.651Q667.249 391.05 667.212 392.449Q667.175 393.848 667.07 395.244Q666.966 396.64 666.793 398.029Q666.621 399.417 666.381 400.796Q666.142 402.175 665.836 403.541Q665.53 404.906 665.158 406.256Q664.786 407.605 664.35 408.934Q663.913 410.264 663.412 411.571Q662.911 412.878 662.348 414.159Q661.784 415.44 661.16 416.692Q660.535 417.944 659.85 419.165C654.433 428.612 647.534 434.662 636.957 437.488C633.116 437.592 629.598 437.306 626.024 435.779C619.465 432.975 615.126 427.212 612.673 420.682C607.776 407.647 609.195 392.183 615.049 379.714C620.404 368.308 628.453 360.833 640.255 356.622Z"/>
	<path fill="#0A3A49" d="M375.189 341.089C384.705 340.56 393.15 342.415 401.197 347.66C415.115 356.732 423.779 372.507 427.058 388.495C430.31 404.354 428.662 422.523 419.522 436.262C413.909 444.699 405.921 449.477 396.082 451.428C386.316 452.239 378.197 451.065 369.81 445.718C355.787 436.778 346.732 421.287 343.24 405.274C339.797 389.485 341.235 371.551 350.194 357.733C356.091 348.639 364.694 343.308 375.189 341.089Z"/>
	<path fill="#438E8A" d="M377.756 355.619C382.514 355.494 387.324 356.916 391.466 359.217C401.787 364.95 408.188 376.076 411.373 387.115C414.812 399.032 415.123 413.703 408.859 424.787C405.32 431.049 399.901 435.064 393.044 437.027C388.326 437.122 383.928 436.392 379.666 434.268C369.535 429.217 363.001 418.638 359.621 408.182C355.593 395.721 355.203 380.832 361.343 368.972C365.066 361.78 370.208 358.034 377.756 355.619Z"/>
	<path fill="#0A3A49" d="M450.005 237.645C459.662 237.189 468.075 239.646 476.161 244.976C492.387 255.669 502.73 275.455 506.59 294.085C510.61 313.484 508.006 335.576 496.914 352.319C489.39 363.675 479.219 370.827 465.854 373.466C455.045 374.098 445.197 371.811 436.2 365.645C420.757 355.062 411.642 336.245 408.325 318.244C404.499 297.482 407.639 274.556 419.923 257.027C427.37 246.399 437.209 239.871 450.005 237.645Z"/>
	<path fill="#438E8A" d="M450.545 253.117Q451.545 253.047 452.547 253.045Q453.549 253.042 454.549 253.107Q455.55 253.171 456.543 253.303Q457.537 253.434 458.519 253.632Q459.502 253.829 460.469 254.093Q461.436 254.356 462.383 254.683Q463.331 255.011 464.254 255.401Q465.177 255.791 466.072 256.242C478.053 262.287 485.403 275.489 489.423 287.783C494.923 304.606 494.756 324.059 486.531 339.996C481.75 349.259 474.627 355.307 464.703 358.456C457.637 358.948 451.346 357.644 445.394 353.73C433.51 345.917 426.322 331.204 423.491 317.645C419.965 300.753 422.016 280.665 431.798 266.086C436.318 259.349 442.519 254.727 450.545 253.117Z"/>
	<path fill="#0A3A49" d="M568.323 237.629C577.898 236.91 587.155 240.515 594.544 246.464C608.554 257.744 615.96 276.186 617.857 293.685C620.124 314.604 613.827 338.331 600.496 354.749C591.634 365.664 579.605 372.319 565.624 373.753C557.564 374.899 547.997 371.616 541.384 367.147C527.67 357.878 519.822 341.364 516.855 325.496Q516.672 324.483 516.515 323.466Q516.357 322.448 516.224 321.427Q516.092 320.407 515.984 319.383Q515.877 318.359 515.794 317.333Q515.712 316.307 515.655 315.279Q515.598 314.251 515.566 313.222Q515.534 312.193 515.527 311.163Q515.52 310.134 515.539 309.105Q515.557 308.075 515.601 307.047Q515.645 306.018 515.714 304.991Q515.783 303.964 515.877 302.939Q515.971 301.914 516.091 300.891Q516.21 299.869 516.354 298.85Q516.499 297.83 516.668 296.815Q516.838 295.799 517.032 294.788Q517.226 293.777 517.445 292.772Q517.664 291.766 517.908 290.765Q518.151 289.765 518.419 288.771Q518.687 287.777 518.98 286.79Q519.272 285.803 519.588 284.824Q519.905 283.844 520.245 282.872Q520.586 281.901 520.95 280.938Q521.314 279.975 521.702 279.021Q522.09 278.068 522.5 277.124Q522.911 276.18 523.346 275.247Q523.78 274.313 524.236 273.391Q524.693 272.468 525.172 271.557Q525.652 270.646 526.153 269.747Q526.655 268.848 527.178 267.961Q527.701 267.075 528.246 266.201Q528.791 265.328 529.358 264.468Q529.924 263.609 530.511 262.763C540.068 248.911 551.731 240.669 568.323 237.629Z"/>
	<path fill="#438E8A" d="M567.066 253.087C572.821 252.757 578.131 253.534 583.156 256.523C592.766 262.239 598.156 273.789 600.828 284.221C605.457 302.294 602.906 323.095 593.339 339.202C587.334 349.312 578.557 355.751 567.211 358.698C561.196 358.935 555.806 358.348 550.501 355.157C540.523 349.157 535.277 337.824 532.698 326.892C528.477 308.995 530.925 289.392 540.731 273.678C546.948 263.715 555.413 255.797 567.066 253.087Z"/>
	<path fill="#0A3A49" d="M506.044 381.192C524.815 379.975 542.769 384.295 557.594 396.255C576.503 411.509 584.685 431.516 587.101 455.078C593.753 456.694 600.021 458.935 605.859 462.575Q606.986 463.276 608.077 464.032Q609.168 464.788 610.22 465.596Q611.273 466.404 612.284 467.263Q613.296 468.122 614.265 469.03Q615.233 469.937 616.156 470.891Q617.078 471.845 617.953 472.843Q618.828 473.841 619.653 474.88Q620.478 475.92 621.251 476.999Q622.024 478.077 622.743 479.193Q623.462 480.308 624.126 481.457Q624.789 482.607 625.396 483.787Q626.002 484.968 626.55 486.176Q627.098 487.385 627.586 488.619Q628.074 489.853 628.501 491.11Q628.928 492.367 629.292 493.643Q629.657 494.919 629.959 496.211Q630.236 497.422 630.453 498.645Q630.671 499.867 630.827 501.099Q630.984 502.331 631.08 503.57Q631.176 504.808 631.211 506.049Q631.247 507.291 631.221 508.533Q631.195 509.774 631.107 511.013Q631.021 512.252 630.873 513.485Q630.725 514.718 630.516 515.943Q630.308 517.167 630.04 518.38Q629.772 519.592 629.444 520.79Q629.117 521.988 628.731 523.169Q628.345 524.349 627.901 525.509Q627.458 526.669 626.957 527.806Q626.457 528.943 625.902 530.054Q625.346 531.165 624.737 532.247Q624.128 533.329 623.466 534.38C615.775 546.468 602.643 555.141 588.73 558.235C563.084 563.937 536.256 551.349 515.08 537.906L511.806 535.835Q508.205 538.664 504.39 541.197Q500.576 543.731 496.572 545.954Q492.568 548.176 488.401 550.074Q484.233 551.972 479.928 553.533C461.498 560.296 439.359 563.232 421.025 554.571Q419.889 554.028 418.782 553.428Q417.675 552.829 416.6 552.175Q415.524 551.521 414.482 550.815Q413.44 550.109 412.434 549.351Q411.429 548.594 410.463 547.787Q409.496 546.98 408.571 546.126Q407.646 545.273 406.764 544.374Q405.883 543.475 405.047 542.533Q404.212 541.592 403.424 540.61Q402.637 539.628 401.899 538.608Q401.161 537.588 400.475 536.532Q399.789 535.477 399.157 534.388Q398.524 533.3 397.946 532.181Q397.369 531.063 396.848 529.917Q396.326 528.771 395.863 527.601Q395.4 526.43 394.995 525.238C390.547 512.38 391.619 497.451 397.699 485.298C405.599 469.51 420.079 460.359 436.423 455.008C436.696 439.087 442.723 422.614 452.61 410.18C465.905 393.459 484.943 383.626 506.044 381.192Z"/>
	<path fill="#438E8A" d="M507.291 396.665C518.47 395.13 530.387 397.676 540.25 403.013C555.133 411.065 567.708 427.561 570.336 444.471C571.265 450.444 570.532 457.1 572.439 462.866C572.89 464.23 573.541 465.723 574.623 466.71C578.321 470.083 590.913 471.481 596.756 474.463C605.248 478.796 611.357 486.184 614.247 495.25C617.172 504.431 616.813 515.055 612.314 523.659Q611.874 524.497 611.394 525.313Q610.913 526.128 610.393 526.919Q609.873 527.71 609.315 528.474Q608.756 529.238 608.161 529.974Q607.565 530.71 606.934 531.416Q606.303 532.121 605.638 532.795Q604.973 533.468 604.276 534.108Q603.579 534.748 602.85 535.353Q602.122 535.958 601.365 536.526Q600.608 537.094 599.824 537.625Q599.04 538.155 598.231 538.646Q597.422 539.137 596.589 539.587Q595.757 540.038 594.903 540.447Q594.05 540.856 593.177 541.222Q592.304 541.589 591.414 541.911Q590.525 542.234 589.62 542.513C569.733 548.595 544.035 538.821 527.526 527.884C523.182 525.007 520.074 520.809 515.378 518.334C515.2 518.24 515.019 518.15 514.839 518.058C514.733 518.025 514.628 517.987 514.52 517.959C513.263 517.643 512.455 517.444 511.194 517.906C507.773 519.162 495.363 529.248 489.982 532.281C473.933 541.327 451.858 548.406 433.462 543.193C424.279 540.591 416.577 534.702 411.923 526.332Q411.488 525.56 411.093 524.766Q410.697 523.973 410.342 523.161Q409.988 522.348 409.674 521.519Q409.361 520.69 409.09 519.846Q408.819 519.001 408.591 518.145Q408.364 517.288 408.179 516.421Q407.995 515.554 407.855 514.679Q407.715 513.803 407.619 512.922Q407.523 512.041 407.472 511.156Q407.421 510.271 407.415 509.385Q407.409 508.498 407.448 507.612Q407.486 506.727 407.57 505.844Q407.653 504.962 407.781 504.085Q407.909 503.207 408.081 502.338Q408.253 501.468 408.469 500.609Q408.685 499.749 408.944 498.901C412.697 486.484 423.074 475.909 435.146 471.366C439.832 469.603 445.122 468.635 449.516 466.247C449.673 466.161 449.827 466.069 449.983 465.981C451.787 461.288 452.133 456.525 452.635 451.576C453.789 440.177 457.039 430.298 463.996 421.041C474.905 406.528 489.563 399.177 507.291 396.665Z"/>
</svg>
